<svg width="170" height="86" viewBox="0 0 170 86" fill="none" xmlns="http://www.w3.org/2000/svg">
<path d="M169 89.9081C166.662 84.3513 157.653 73.1951 140.312 73.0241C118.637 72.8104 93.5625 78.1534 84.85 65.3301C81.2854 60.0837 72.7375 48.2324 55.7375 47.1638C38.7375 46.0952 23.9527 36.1976 20.25 25.3643C13.2375 4.84702 -1 1.00004 -1 1.00004" stroke="black"/>
<path d="M163 97.9081C160.662 92.3513 151.653 81.1951 134.312 81.0241C112.637 80.8104 87.5625 86.1534 78.85 73.3301C75.2854 68.0837 66.7375 56.2324 49.7375 55.1638C32.7375 54.0952 17.9527 44.1976 14.25 33.3643C7.2375 12.847 -7 9.00004 -7 9.00004" stroke="black"/>
<path d="M157 105.908C154.662 100.351 145.653 89.1951 128.312 89.0241C106.637 88.8104 81.5625 94.1534 72.85 81.3301C69.2854 76.0837 60.7375 64.2324 43.7375 63.1638C26.7375 62.0952 11.9527 52.1976 8.25 41.3643C1.2375 20.847 -13 17 -13 17" stroke="black"/>
<path d="M151 113.908C148.662 108.351 139.653 97.1951 122.312 97.0241C100.637 96.8104 75.5625 102.153 66.85 89.3301C63.2854 84.0837 54.7375 72.2324 37.7375 71.1638C20.7375 70.0952 5.95268 60.1976 2.25 49.3643C-4.7625 28.847 -19 25 -19 25" stroke="black"/>
<path d="M145 121.908C142.662 116.351 133.653 105.195 116.312 105.024C94.6375 104.81 69.5625 110.153 60.85 97.3301C57.2854 92.0837 48.7375 80.2324 31.7375 79.1638C14.7375 78.0952 -0.0473156 68.1976 -3.75 57.3643C-10.7625 36.847 -25 33 -25 33" stroke="black"/>
<path d="M139 129.908C136.662 124.351 127.653 113.195 110.312 113.024C88.6375 112.81 63.5625 118.153 54.85 105.33C51.2854 100.084 42.7375 88.2324 25.7375 87.1638C8.7375 86.0952 -6.04732 76.1976 -9.75 65.3643C-16.7625 44.847 -31 41 -31 41" stroke="black"/>
<path d="M133 137.908C130.662 132.351 121.653 121.195 104.312 121.024C82.6375 120.81 57.5625 126.153 48.85 113.33C45.2854 108.084 36.7375 96.2324 19.7375 95.1638C2.7375 94.0952 -12.0473 84.1976 -15.75 73.3643C-22.7625 52.847 -37 49 -37 49" stroke="black"/>
</svg>
