<svg width="171" height="88" viewBox="0 0 171 88" fill="none" xmlns="http://www.w3.org/2000/svg">
<path d="M1 -2C3.3375 3.55675 12.3475 14.713 29.6875 14.884C51.3625 15.0977 76.4375 9.75467 85.15 22.5779C88.7146 27.8244 97.2625 39.6756 114.263 40.7443C131.263 41.8129 146.047 51.7105 149.75 62.5438C156.763 83.0611 171 86.908 171 86.908" stroke="black"/>
<path d="M7 -10C9.3375 -4.44325 18.3475 6.713 35.6875 6.88398C57.3625 7.0977 82.4375 1.75467 91.15 14.5779C94.7146 19.8244 103.263 31.6756 120.263 32.7443C137.263 33.8129 152.047 43.7105 155.75 54.5438C162.763 75.0611 177 78.908 177 78.908" stroke="black"/>
<path d="M13 -18C15.3375 -12.4432 24.3475 -1.287 41.6875 -1.11602C63.3625 -0.902299 88.4375 -6.24533 97.15 6.57795C100.715 11.8244 109.263 23.6756 126.263 24.7443C143.263 25.8129 158.047 35.7105 161.75 46.5438C168.763 67.0611 183 70.908 183 70.908" stroke="black"/>
<path d="M19 -26C21.3375 -20.4432 30.3475 -9.287 47.6875 -9.11602C69.3625 -8.9023 94.4375 -14.2453 103.15 -1.42205C106.715 3.82441 115.263 15.6756 132.263 16.7443C149.263 17.8129 164.047 27.7105 167.75 38.5438C174.763 59.0611 189 62.908 189 62.908" stroke="black"/>
<path d="M25 -34C27.3375 -28.4432 36.3475 -17.287 53.6875 -17.116C75.3625 -16.9023 100.438 -22.2453 109.15 -9.42205C112.715 -4.17559 121.263 7.67565 138.263 8.74426C155.263 9.81286 170.047 19.7105 173.75 30.5438C180.763 51.0611 195 54.908 195 54.908" stroke="black"/>
<path d="M31 -42C33.3375 -36.4432 42.3475 -25.287 59.6875 -25.116C81.3625 -24.9023 106.438 -30.2453 115.15 -17.4221C118.715 -12.1756 127.263 -0.324351 144.263 0.744255C161.263 1.81286 176.047 11.7105 179.75 22.5438C186.763 43.0611 201 46.908 201 46.908" stroke="black"/>
<path d="M37 -50C39.3375 -44.4432 48.3475 -33.287 65.6875 -33.116C87.3625 -32.9023 112.438 -38.2453 121.15 -25.4221C124.715 -20.1756 133.263 -8.32435 150.263 -7.25574C167.263 -6.18714 182.047 3.71047 185.75 14.5438C192.763 35.0611 207 38.908 207 38.908" stroke="black"/>
</svg>
