<svg width="197" height="29" viewBox="0 0 197 29" fill="none" xmlns="http://www.w3.org/2000/svg">
<circle cx="89.8953" cy="3.84943" r="3.84943" fill="black"/>
<circle cx="158.732" cy="3.84943" r="3.84943" fill="black"/>
<circle cx="175.941" cy="3.84943" r="3.84943" fill="black"/>
<circle cx="3.84943" cy="3.84943" r="3.84943" fill="black"/>
<circle cx="21.0587" cy="3.84943" r="3.84943" fill="black"/>
<circle cx="38.2676" cy="3.84943" r="3.84943" fill="black"/>
<circle cx="107.105" cy="3.84943" r="3.84943" fill="black"/>
<circle cx="55.4771" cy="3.84943" r="3.84943" fill="black"/>
<circle cx="124.314" cy="3.84943" r="3.84943" fill="black"/>
<circle cx="72.6863" cy="3.84943" r="3.84943" fill="black"/>
<circle cx="141.523" cy="3.84943" r="3.84943" fill="black"/>
<circle cx="193.15" cy="3.84943" r="3.84943" fill="black"/>
<circle cx="89.8956" cy="24.6816" r="3.84943" fill="black"/>
<circle cx="158.732" cy="24.6816" r="3.84943" fill="black"/>
<circle cx="175.942" cy="24.6816" r="3.84943" fill="black"/>
<circle cx="21.0587" cy="24.6816" r="3.84943" fill="black"/>
<circle cx="38.2679" cy="24.6816" r="3.84943" fill="black"/>
<circle cx="107.105" cy="24.6816" r="3.84943" fill="black"/>
<circle cx="55.4771" cy="24.6816" r="3.84943" fill="black"/>
<circle cx="124.314" cy="24.6816" r="3.84943" fill="black"/>
<circle cx="72.6866" cy="24.6816" r="3.84943" fill="black"/>
<circle cx="141.523" cy="24.6816" r="3.84943" fill="black"/>
<circle cx="80.8377" cy="14.2656" r="3.84943" fill="black"/>
<circle cx="149.675" cy="14.2656" r="3.84943" fill="black"/>
<circle cx="166.884" cy="14.2656" r="3.84943" fill="black"/>
<circle cx="12.001" cy="14.2656" r="3.84943" fill="black"/>
<circle cx="29.21" cy="14.2656" r="3.84943" fill="black"/>
<circle cx="98.0469" cy="14.2656" r="3.84943" fill="black"/>
<circle cx="46.4193" cy="14.2656" r="3.84943" fill="black"/>
<circle cx="115.256" cy="14.2656" r="3.84943" fill="black"/>
<circle cx="63.6285" cy="14.2656" r="3.84943" fill="black"/>
<circle cx="132.465" cy="14.2656" r="3.84943" fill="black"/>
<circle cx="184.093" cy="14.2656" r="3.84943" fill="black"/>
</svg>
